<svg width="7" height="8" viewBox="0 0 7 8" fill="none" xmlns="http://www.w3.org/2000/svg">
<path d="M1.12356 7.35261C1.00212 7.2649 0.941406 7.16105 0.941406 7.04107C0.941406 6.92109 1.00212 6.81736 1.12356 6.72988L4.68161 4.16004L1.11142 1.58144C0.998076 1.49957 0.941406 1.39725 0.941406 1.27446C0.941406 1.15167 1.00212 1.04642 1.12356 0.95871C1.24499 0.871002 1.38877 0.827148 1.5549 0.827148C1.72102 0.827148 1.86464 0.871002 1.98575 0.95871L6.06597 3.91446C6.11455 3.94955 6.14903 3.98755 6.16944 4.02848C6.18984 4.06941 6.19987 4.11327 6.19955 4.16004C6.19955 4.20682 6.18935 4.25068 6.16895 4.29161C6.14855 4.33254 6.11422 4.37054 6.06597 4.40563L1.97361 7.36138C1.86027 7.44324 1.72053 7.48417 1.55441 7.48417C1.38829 7.48417 1.24467 7.44032 1.12356 7.35261Z" fill="#C3C4C6"/>
</svg>
