<svg width="8" height="8" viewBox="0 0 8 8" fill="none" xmlns="http://www.w3.org/2000/svg">
<path d="M7.42386 0.173918C7.37059 0.120535 7.30731 0.0781827 7.23764 0.0492858C7.16798 0.0203888 7.0933 0.00551452 7.01789 0.00551452C6.94247 0.00551452 6.86779 0.0203888 6.79813 0.0492858C6.72847 0.0781827 6.66519 0.120535 6.61191 0.173918L3.79601 2.98406L0.980107 0.16816C0.926794 0.114846 0.863502 0.0725561 0.793845 0.0437032C0.724188 0.0148502 0.64953 5.61746e-10 0.574134 0C0.498737 -5.61746e-10 0.424079 0.0148502 0.354422 0.0437032C0.284765 0.0725561 0.221473 0.114846 0.16816 0.16816C0.114846 0.221473 0.0725561 0.284765 0.0437032 0.354422C0.0148502 0.424079 -5.61746e-10 0.498737 0 0.574134C5.61746e-10 0.64953 0.0148502 0.724188 0.0437032 0.793845C0.0725561 0.863502 0.114846 0.926794 0.16816 0.980107L2.98406 3.79601L0.16816 6.61191C0.114846 6.66523 0.0725561 6.72852 0.0437032 6.79818C0.0148502 6.86783 0 6.94249 0 7.01789C0 7.09328 0.0148502 7.16794 0.0437032 7.2376C0.0725561 7.30726 0.114846 7.37055 0.16816 7.42386C0.221473 7.47717 0.284765 7.51946 0.354422 7.54832C0.424079 7.57717 0.498737 7.59202 0.574134 7.59202C0.64953 7.59202 0.724188 7.57717 0.793845 7.54832C0.863502 7.51946 0.926794 7.47717 0.980107 7.42386L3.79601 4.60796L6.61191 7.42386C6.66523 7.47717 6.72852 7.51946 6.79818 7.54832C6.86783 7.57717 6.94249 7.59202 7.01789 7.59202C7.09328 7.59202 7.16794 7.57717 7.2376 7.54832C7.30726 7.51946 7.37055 7.47717 7.42386 7.42386C7.47717 7.37055 7.51946 7.30726 7.54832 7.2376C7.57717 7.16794 7.59202 7.09328 7.59202 7.01789C7.59202 6.94249 7.57717 6.86783 7.54832 6.79818C7.51946 6.72852 7.47717 6.66523 7.42386 6.61191L4.60796 3.79601L7.42386 0.980107C7.64268 0.761285 7.64268 0.392741 7.42386 0.173918Z" fill="#7A7C87"/>
</svg>
