<svg width="33" height="33" viewBox="0 0 33 33" fill="none" xmlns="http://www.w3.org/2000/svg">
<g clip-path="url(#clip0_2966_32936)">
<path d="M17.7911 16.5003L25.3903 8.90108C25.5404 8.72573 25.6189 8.50016 25.61 8.26945C25.6011 8.03875 25.5054 7.81991 25.3422 7.65665C25.1789 7.4934 24.9601 7.39776 24.7294 7.38885C24.4987 7.37994 24.2731 7.45841 24.0978 7.60858L16.4986 15.2078L8.89943 7.59942C8.72681 7.42681 8.4927 7.32983 8.24859 7.32983C8.00448 7.32983 7.77037 7.42681 7.59776 7.59942C7.42515 7.77203 7.32817 8.00614 7.32817 8.25025C7.32817 8.49436 7.42515 8.72847 7.59776 8.90108L15.2061 16.5003L7.59776 24.0994C7.5018 24.1816 7.42387 24.2827 7.36884 24.3964C7.31382 24.5102 7.2829 24.634 7.27803 24.7603C7.27315 24.8865 7.29442 25.0124 7.34051 25.13C7.38659 25.2477 7.4565 25.3545 7.54583 25.4438C7.63516 25.5332 7.742 25.6031 7.85963 25.6492C7.97726 25.6953 8.10315 25.7165 8.22939 25.7117C8.35563 25.7068 8.4795 25.6759 8.59323 25.6208C8.70696 25.5658 8.80808 25.4879 8.89026 25.3919L16.4986 17.7928L24.0978 25.3919C24.2731 25.5421 24.4987 25.6206 24.7294 25.6117C24.9601 25.6027 25.1789 25.5071 25.3422 25.3439C25.5054 25.1806 25.6011 24.9618 25.61 24.7311C25.6189 24.5003 25.5404 24.2748 25.3903 24.0994L17.7911 16.5003Z" fill="#ACACAC"/>
</g>
<defs>
<clipPath id="clip0_2966_32936">
<rect width="33" height="33" fill="white"/>
</clipPath>
</defs>
</svg>
