<svg width="48" height="63" viewBox="0 0 48 63" fill="none" xmlns="http://www.w3.org/2000/svg">
<path d="M12.74 60.108C11.892 60.108 11.172 59.932 10.58 59.58C9.988 59.228 9.532 58.728 9.212 58.08C8.9 57.432 8.744 56.66 8.744 55.764C8.744 54.868 8.9 54.1 9.212 53.46C9.532 52.812 9.988 52.312 10.58 51.96C11.172 51.608 11.892 51.432 12.74 51.432C13.34 51.432 13.876 51.524 14.348 51.708C14.82 51.892 15.232 52.16 15.584 52.512L15.212 53.304C14.828 52.968 14.448 52.724 14.072 52.572C13.696 52.412 13.256 52.332 12.752 52.332C11.784 52.332 11.048 52.632 10.544 53.232C10.04 53.832 9.788 54.676 9.788 55.764C9.788 56.852 10.04 57.7 10.544 58.308C11.048 58.908 11.784 59.208 12.752 59.208C13.256 59.208 13.696 59.132 14.072 58.98C14.448 58.82 14.828 58.568 15.212 58.224L15.584 59.028C15.232 59.372 14.82 59.64 14.348 59.832C13.876 60.016 13.34 60.108 12.74 60.108ZM17.1511 60V51.168H18.1231V60H17.1511ZM22.4825 60.108C21.9065 60.108 21.4025 59.984 20.9705 59.736C20.5465 59.48 20.2185 59.12 19.9865 58.656C19.7545 58.184 19.6385 57.628 19.6385 56.988C19.6385 56.34 19.7545 55.784 19.9865 55.32C20.2185 54.856 20.5465 54.5 20.9705 54.252C21.4025 53.996 21.9065 53.868 22.4825 53.868C23.0665 53.868 23.5705 53.996 23.9945 54.252C24.4265 54.5 24.7585 54.856 24.9905 55.32C25.2305 55.784 25.3505 56.34 25.3505 56.988C25.3505 57.628 25.2305 58.184 24.9905 58.656C24.7585 59.12 24.4265 59.48 23.9945 59.736C23.5705 59.984 23.0665 60.108 22.4825 60.108ZM22.4825 59.316C23.0585 59.316 23.5145 59.12 23.8505 58.728C24.1865 58.328 24.3545 57.748 24.3545 56.988C24.3545 56.22 24.1825 55.64 23.8385 55.248C23.5025 54.848 23.0505 54.648 22.4825 54.648C21.9145 54.648 21.4625 54.848 21.1265 55.248C20.7905 55.64 20.6225 56.22 20.6225 56.988C20.6225 57.748 20.7905 58.328 21.1265 58.728C21.4625 59.12 21.9145 59.316 22.4825 59.316ZM28.87 60.108C28.39 60.108 27.942 60.044 27.526 59.916C27.11 59.78 26.766 59.592 26.494 59.352L26.83 58.668C27.126 58.9 27.446 59.072 27.79 59.184C28.142 59.296 28.506 59.352 28.882 59.352C29.362 59.352 29.722 59.268 29.962 59.1C30.21 58.924 30.334 58.684 30.334 58.38C30.334 58.148 30.254 57.964 30.094 57.828C29.942 57.684 29.69 57.572 29.338 57.492L28.222 57.264C27.71 57.152 27.326 56.964 27.07 56.7C26.814 56.428 26.686 56.084 26.686 55.668C26.686 55.316 26.778 55.008 26.962 54.744C27.146 54.472 27.414 54.26 27.766 54.108C28.118 53.948 28.53 53.868 29.002 53.868C29.442 53.868 29.846 53.936 30.214 54.072C30.59 54.2 30.902 54.388 31.15 54.636L30.802 55.308C30.562 55.076 30.286 54.904 29.974 54.792C29.67 54.672 29.354 54.612 29.026 54.612C28.554 54.612 28.198 54.708 27.958 54.9C27.726 55.084 27.61 55.328 27.61 55.632C27.61 55.864 27.682 56.056 27.826 56.208C27.978 56.352 28.21 56.46 28.522 56.532L29.638 56.76C30.182 56.88 30.586 57.068 30.85 57.324C31.122 57.572 31.258 57.908 31.258 58.332C31.258 58.692 31.158 59.008 30.958 59.28C30.758 59.544 30.478 59.748 30.118 59.892C29.766 60.036 29.35 60.108 28.87 60.108ZM35.4951 60.108C34.5511 60.108 33.8071 59.836 33.2631 59.292C32.7191 58.74 32.4471 57.976 32.4471 57C32.4471 56.368 32.5671 55.82 32.8071 55.356C33.0471 54.884 33.3831 54.52 33.8151 54.264C34.2471 54 34.7431 53.868 35.3031 53.868C35.8551 53.868 36.3191 53.984 36.6951 54.216C37.0711 54.448 37.3591 54.78 37.5591 55.212C37.7591 55.636 37.8591 56.14 37.8591 56.724V57.084H33.1911V56.472H37.2231L37.0191 56.628C37.0191 55.988 36.8751 55.488 36.5871 55.128C36.2991 54.768 35.8711 54.588 35.3031 54.588C34.7031 54.588 34.2351 54.8 33.8991 55.224C33.5631 55.64 33.3951 56.204 33.3951 56.916V57.024C33.3951 57.776 33.5791 58.348 33.9471 58.74C34.3231 59.124 34.8471 59.316 35.5191 59.316C35.8791 59.316 36.2151 59.264 36.5271 59.16C36.8471 59.048 37.1511 58.868 37.4391 58.62L37.7751 59.304C37.5111 59.56 37.1751 59.76 36.7671 59.904C36.3671 60.04 35.9431 60.108 35.4951 60.108Z" fill="#ACACAC"/>
<g clip-path="url(#clip0_2990_35847)">
<path d="M25.8787 24.0002L36.932 12.9468C37.1504 12.6918 37.2646 12.3637 37.2516 12.0281C37.2386 11.6925 37.0995 11.3742 36.8621 11.1367C36.6246 10.8993 36.3063 10.7602 35.9707 10.7472C35.6352 10.7343 35.3071 10.8484 35.052 11.0668L23.9987 22.1202L12.9453 11.0535C12.6943 10.8024 12.3537 10.6614 11.9987 10.6614C11.6436 10.6614 11.3031 10.8024 11.052 11.0535C10.8009 11.3046 10.6599 11.6451 10.6599 12.0002C10.6599 12.3552 10.8009 12.6958 11.052 12.9468L22.1187 24.0002L11.052 35.0535C10.9124 35.173 10.7991 35.3201 10.719 35.4855C10.639 35.651 10.594 35.8311 10.5869 36.0148C10.5798 36.1984 10.6108 36.3815 10.6778 36.5526C10.7448 36.7237 10.8465 36.8791 10.9765 37.009C11.1064 37.139 11.2618 37.2406 11.4329 37.3077C11.604 37.3747 11.7871 37.4057 11.9707 37.3986C12.1544 37.3915 12.3345 37.3465 12.5 37.2665C12.6654 37.1864 12.8125 37.0731 12.932 36.9335L23.9987 25.8802L35.052 36.9335C35.3071 37.1519 35.6352 37.2661 35.9707 37.2531C36.3063 37.2402 36.6246 37.101 36.8621 36.8636C37.0995 36.6261 37.2386 36.3078 37.2516 35.9722C37.2646 35.6367 37.1504 35.3086 36.932 35.0535L25.8787 24.0002Z" fill="#ACACAC"/>
</g>
<defs>
<clipPath id="clip0_2990_35847">
<rect width="48" height="48" fill="white"/>
</clipPath>
</defs>
</svg>
