<svg width="18" height="17" viewBox="0 0 18 17" fill="none" xmlns="http://www.w3.org/2000/svg">
<path d="M8.53407 16.1957C3.82069 16.1957 0 12.5703 0 8.09783C0 3.62539 3.82069 0 8.53407 0C13.2474 0 17.0681 3.62539 17.0681 8.09783C17.0681 12.5703 13.2474 16.1957 8.53407 16.1957ZM8.53407 0.880938C4.3563 0.880938 0.928393 4.13362 0.928393 8.09783C0.928393 12.062 4.3563 15.3147 8.53407 15.3147C12.7118 15.3147 16.1397 12.062 16.1397 8.09783C16.1397 4.13362 12.7118 0.880938 8.53407 0.880938Z" fill="white"/>
<path d="M8.35367 12.7395L7.71094 12.0958L11.8887 8.09767L7.71094 4.09958L8.35367 3.45581L13.2456 8.09767L8.35367 12.7395Z" fill="white"/>
<path d="M12.5698 8.57199H4V7.62329H12.5698V8.57199Z" fill="white"/>
</svg>
