<svg width="13" height="8" viewBox="0 0 13 8" fill="none" xmlns="http://www.w3.org/2000/svg">
<path d="M6.28571 0.00012207C3.46514 0.00012207 1.31886 1.74755 0 4.00012C1.31886 6.25269 3.46514 8.00012 6.28571 8.00012C9.10629 8.00012 11.2531 6.25269 12.5714 4.00012C11.2531 1.74755 9.10571 0.00012207 6.28571 0.00012207ZM6.28571 6.85727C3.82286 6.85727 2.28057 5.30698 1.35771 4.00012C2.28057 2.69327 3.82286 1.14298 6.28571 1.14298C8.74914 1.14298 10.2914 2.69327 11.2137 4.00012C10.2914 5.30698 8.74914 6.85727 6.28571 6.85727Z" fill="#FF7A00"/>
<path d="M6.2846 5.71446C7.23137 5.71446 7.99888 4.94695 7.99888 4.00017C7.99888 3.0534 7.23137 2.28589 6.2846 2.28589C5.33782 2.28589 4.57031 3.0534 4.57031 4.00017C4.57031 4.94695 5.33782 5.71446 6.2846 5.71446Z" fill="#FF7A00"/>
</svg>
