<svg width="145" height="145" viewBox="0 0 145 145" fill="none" xmlns="http://www.w3.org/2000/svg">
<path d="M72.0267 144.053C111.806 144.053 144.053 111.806 144.053 72.0266C144.053 32.2474 111.806 0 72.0267 0C32.2474 0 0 32.2474 0 72.0266C0 111.806 32.2474 144.053 72.0267 144.053Z" fill="#382673"/>
<path d="M72.0261 132.048C105.176 132.048 132.048 105.175 132.048 72.0261C132.048 38.8768 105.176 12.0039 72.0261 12.0039C38.8768 12.0039 12.0039 38.8768 12.0039 72.0261C12.0039 105.175 38.8768 132.048 72.0261 132.048Z" fill="#473080"/>
<path d="M54.0234 141.773C59.7856 143.213 65.7878 144.053 72.0301 144.053C74.0709 144.053 75.9916 143.933 78.0323 143.813V89.3132L54.0234 72.0269V141.773Z" fill="#FFDE39"/>
<path d="M66.024 31.2115V69.9859C66.024 72.8669 64.1033 75.5079 61.3422 75.9881C57.3808 76.8284 54.0195 73.9473 54.0195 70.2259V31.4516C54.0195 28.5706 55.9402 25.9296 58.7013 25.4494C62.6627 24.4891 66.024 27.4902 66.024 31.2115Z" fill="#F9A74E"/>
<path opacity="0.2" d="M64.8274 27.6104L55.3439 39.4947C54.5036 40.5751 54.0234 41.8956 54.0234 43.2161V61.1027C54.0234 63.9838 55.9442 66.6247 58.7052 67.1049C62.5466 67.9452 66.0279 64.9441 66.0279 61.2227V45.3769V31.2117C66.0279 29.8912 65.5477 28.5707 64.8274 27.6104Z" fill="#382673"/>
<path d="M78.0284 37.2138C78.0284 38.5342 77.5482 39.8547 76.7079 40.9351L66.024 54.26V69.9859C66.024 72.8669 64.1033 75.5079 61.3422 75.9881C57.3808 76.8284 54.0195 73.9473 54.0195 70.2259V52.2193C54.0195 50.8988 54.4997 49.5783 55.34 48.4979L67.3445 33.4924C69.3852 30.8514 73.2266 30.4913 75.7476 32.532C77.3082 33.6124 78.0284 35.4131 78.0284 37.2138Z" fill="#FEC632"/>
<path opacity="0.1" d="M75.9848 41.8958C63.7403 42.8561 54.1367 53.1799 54.1367 65.6645C54.1367 68.6656 54.7369 71.5467 55.6973 74.1877C57.1378 75.7482 59.1786 76.4685 61.5795 75.9883C64.2204 75.3881 66.0211 72.7471 66.0211 69.9861V54.3804L75.9848 41.8958Z" fill="#382673"/>
<path d="M94.5923 78.99C90.871 89.3138 79.4667 89.4339 77.9062 89.4339C68.0625 89.4339 60.0195 81.3909 60.0195 71.5472C60.0195 61.7036 68.0625 53.6606 77.9062 53.6606C86.7895 53.6606 91.2311 58.8225 91.2311 58.8225" stroke="#FFDE39" stroke-width="6.48889" stroke-miterlimit="10" stroke-linecap="round" stroke-linejoin="round"/>
<path d="M54.0234 118.844H78.2724C79.4729 118.844 80.4332 117.883 80.4332 116.683V106.599C80.4332 105.399 79.4729 104.438 78.2724 104.438H54.0234V118.844Z" fill="#0CAFE8"/>
<path d="M51.6236 100.837H50.4231C49.7028 100.837 49.2227 101.317 49.2227 102.037V103.238H52.824V102.037C52.824 101.317 52.3438 100.837 51.6236 100.837Z" fill="white"/>
<path d="M75.0311 113.442C76.0256 113.442 76.8318 112.636 76.8318 111.641C76.8318 110.647 76.0256 109.841 75.0311 109.841C74.0367 109.841 73.2305 110.647 73.2305 111.641C73.2305 112.636 74.0367 113.442 75.0311 113.442Z" fill="#0B90D3"/>
<path d="M67.828 113.442C68.8225 113.442 69.6287 112.636 69.6287 111.641C69.6287 110.647 68.8225 109.841 67.828 109.841C66.8335 109.841 66.0273 110.647 66.0273 111.641C66.0273 112.636 66.8335 113.442 67.828 113.442Z" fill="#0B90D3"/>
<path opacity="0.2" d="M51.6236 100.837H50.4231C49.7028 100.837 49.2227 101.317 49.2227 102.037V103.238H52.824V102.037C52.824 101.317 52.3438 100.837 51.6236 100.837Z" fill="#382673"/>
<path d="M50.4204 122.445H51.6209C52.9414 122.445 54.0218 121.365 54.0218 120.044V104.438C54.0218 103.118 52.9414 102.038 51.6209 102.038H50.4204C49.0999 102.038 48.0195 103.118 48.0195 104.438V120.044C48.0195 121.365 49.0999 122.445 50.4204 122.445Z" fill="white"/>
<path opacity="0.2" d="M51.621 102.038H50.4205C50.1804 102.038 50.0604 102.038 49.8203 102.158C50.9007 102.398 51.621 103.358 51.621 104.438V120.044C51.621 121.125 50.9007 122.085 49.8203 122.325C50.0604 122.325 50.1804 122.445 50.4205 122.445H51.621C52.9415 122.445 54.0219 121.365 54.0219 120.044V104.438C54.0219 103.118 52.9415 102.038 51.621 102.038Z" fill="#382673"/>
<path d="M104.803 34.3325L105.884 31.5714C106.244 30.8512 107.324 30.8512 107.564 31.5714L108.645 34.3325C109.485 36.4933 111.166 38.1739 113.326 39.0142L116.087 40.0946C116.808 40.4547 116.808 41.5351 116.087 41.7752L113.326 42.8556C111.166 43.6959 109.485 45.3765 108.645 47.5373L107.564 50.2984C107.204 51.0186 106.124 51.0186 105.884 50.2984L104.803 47.5373C103.963 45.3765 102.282 43.6959 100.122 42.8556L97.3605 41.7752C96.6402 41.4151 96.6402 40.3347 97.3605 40.0946L100.122 39.0142C102.282 38.1739 103.963 36.4933 104.803 34.3325Z" fill="#00C2A9"/>
<path d="M26.8942 66.6247L27.6144 64.824C27.8545 64.3438 28.5748 64.3438 28.6948 64.824L29.4151 66.6247C30.0153 68.0652 31.0957 69.1456 32.5363 69.7458L34.3369 70.4661C34.8171 70.7062 34.8171 71.4264 34.3369 71.5465L32.4162 72.1467C30.9757 72.7469 29.8953 73.8273 29.2951 75.2678L28.5748 77.0685C28.3347 77.5487 27.6144 77.5487 27.4944 77.0685L26.7741 75.2678C26.1739 73.8273 25.0935 72.7469 23.653 72.1467L21.8523 71.4264C21.3721 71.1863 21.3721 70.4661 21.8523 70.346L23.653 69.6258C25.2136 69.1456 26.294 67.9451 26.8942 66.6247Z" fill="#00C2A9"/>
<path d="M114.045 75.6284C115.371 75.6284 116.446 74.5535 116.446 73.2275C116.446 71.9016 115.371 70.8267 114.045 70.8267C112.719 70.8267 111.645 71.9016 111.645 73.2275C111.645 74.5535 112.719 75.6284 114.045 75.6284Z" fill="white"/>
<path d="M38.4165 46.8174C39.7425 46.8174 40.8174 45.7425 40.8174 44.4165C40.8174 43.0905 39.7425 42.0156 38.4165 42.0156C37.0905 42.0156 36.0156 43.0905 36.0156 44.4165C36.0156 45.7425 37.0905 46.8174 38.4165 46.8174Z" fill="white"/>
</svg>
