<svg width="40" height="40" viewBox="0 0 40 40" fill="none" xmlns="http://www.w3.org/2000/svg">
<path d="M39.5171 19.6724C36.9042 17.5939 33.4203 16.1717 29.7913 15.6248C28.1945 15.2966 26.5977 15.0778 25.0009 14.9684C29.0655 11.3583 28.3396 5.88852 23.5493 2.82543C18.759 -0.237656 11.5009 0.309324 7.43642 3.91939C3.3719 7.52946 4.09771 12.9993 8.88803 16.0623C9.759 16.6093 10.63 17.0469 11.5009 17.2657V19.6724L9.17835 18.0315C7.1461 16.4999 3.80739 16.4999 1.62997 18.0315C-0.402291 19.563 -0.547453 21.9697 1.48481 23.5013L8.16223 29.4086C8.45255 30.9402 9.17835 32.3623 10.1945 33.6751C10.9203 34.6597 11.9364 35.6442 12.9525 36.41V38.4885C12.9525 39.1449 13.5332 39.5825 14.4042 39.5825H34.1461C34.8719 39.5825 35.5977 39.0355 35.5977 38.4885V35.6442C38.3558 33.1281 39.8074 29.9556 39.8074 26.7831V20.4382C39.9525 20.0006 39.8074 19.7818 39.5171 19.6724ZM7.58158 9.38919C7.58158 5.77912 11.5009 2.93483 16.2913 3.04422C21.0816 3.04422 24.8558 5.99791 24.7106 9.60798C24.7106 11.5771 23.5493 13.3274 21.5171 14.5308V9.061C21.4429 8.11294 20.8904 7.22217 19.9727 6.57127C19.0551 5.92038 17.8418 5.55869 16.5816 5.56033C13.9687 5.45093 11.6461 7.09187 11.6461 9.061V14.7496C9.17835 13.6556 7.72674 11.5771 7.58158 9.38919ZM37.0493 26.6737C37.1945 29.518 35.888 32.2529 33.4203 34.4409C33.13 34.6597 32.8396 34.8784 32.8396 35.2066V37.5039H16.0009V35.9724C16.0009 35.6442 15.7106 35.316 15.4203 35.0972C14.4042 34.4409 13.5332 33.6751 12.8074 32.6905C11.9364 31.5966 11.3558 30.2838 11.0655 28.9711C11.0655 28.7523 10.9203 28.5335 10.7751 28.3147L3.80739 22.0791C3.3719 21.7509 3.08158 21.3133 3.08158 20.7664C3.08158 20.3288 3.3719 19.7818 3.80739 19.4536C4.82352 18.7972 6.27513 18.7972 7.29126 19.4536L11.5009 22.6261V25.908L14.259 24.814V9.061C14.4042 8.29523 15.2751 7.63885 16.4364 7.74825C17.4525 7.74825 18.4687 8.29523 18.4687 9.061V21.6415L21.3719 22.0791V17.0469C21.5171 16.9375 21.6622 16.9375 21.8074 16.8281C22.8235 16.8281 23.8396 16.9375 24.8558 17.0469V22.6261L27.1784 22.9543V17.2657L28.9203 17.5939C29.6461 17.7033 30.3719 17.9221 31.0977 18.1409V23.6107L33.4203 23.9389V18.9066C34.7267 19.3442 35.888 20.0006 36.9042 20.7664L37.0493 26.6737Z" fill="white"/>
</svg>
