<svg width="24" height="24" viewBox="0 0 24 24" fill="none" xmlns="http://www.w3.org/2000/svg">
<path d="M0.972 17.94L6 23.028L8.4 20.628V24H15.6V20.688L18 23.088L23.088 18L20.688 15.6H24V8.4H20.688L23.028 6.06L18 0.972L15.6 3.372V0H8.4V3.312L6 0.912L0.972 6.06L3.312 8.4H0V15.6H3.312L0.972 17.94ZM2.4 13.2V10.8H6.072L6.36 9.996C6.42939 9.79584 6.50951 9.59955 6.6 9.408L6.96 8.64L4.368 6.06L6 4.368L8.652 6.96L9.42 6.6C9.61179 6.51005 9.80805 6.42995 10.008 6.36L10.8 6.072V2.4H13.2V6.072L14.004 6.36C14.204 6.42995 14.4002 6.51005 14.592 6.6L15.36 6.96L18 4.368L19.692 6.06L17.04 8.652L17.4 9.42C17.4905 9.61155 17.5706 9.80784 17.64 10.008L17.928 10.812H21.6V13.212H17.928L17.64 14.016C17.5706 14.2162 17.4905 14.4124 17.4 14.604L17.04 15.372L19.632 17.964L18 19.632L15.348 17.04L14.58 17.4C14.3882 17.4899 14.192 17.5701 13.992 17.64L13.188 17.928V21.6H10.8V17.928L9.996 17.64C9.79605 17.5701 9.59979 17.4899 9.408 17.4L8.64 17.04L6 19.632L4.368 17.94L6.96 15.348L6.6 14.58C6.50951 14.3884 6.42939 14.1922 6.36 13.992L6.072 13.2H2.4Z" fill="#FF7A00"/>
</svg>
