<svg width="20" height="18" viewBox="0 0 20 18" fill="none" xmlns="http://www.w3.org/2000/svg">
<path d="M17 4H14V3C14 2.20435 13.6839 1.44129 13.1213 0.87868C12.5587 0.316071 11.7956 0 11 0H9C8.20435 0 7.44129 0.316071 6.87868 0.87868C6.31607 1.44129 6 2.20435 6 3V4H3C2.20435 4 1.44129 4.31607 0.87868 4.87868C0.316071 5.44129 0 6.20435 0 7V15C0 15.7956 0.316071 16.5587 0.87868 17.1213C1.44129 17.6839 2.20435 18 3 18H17C17.7956 18 18.5587 17.6839 19.1213 17.1213C19.6839 16.5587 20 15.7956 20 15V7C20 6.20435 19.6839 5.44129 19.1213 4.87868C18.5587 4.31607 17.7956 4 17 4ZM8 3C8 2.73478 8.10536 2.48043 8.29289 2.29289C8.48043 2.10536 8.73478 2 9 2H11C11.2652 2 11.5196 2.10536 11.7071 2.29289C11.8946 2.48043 12 2.73478 12 3V4H8V3ZM2 7C2 6.73478 2.10536 6.48043 2.29289 6.29289C2.48043 6.10536 2.73478 6 3 6H4C4 6.53043 3.78929 7.03914 3.41421 7.41421C3.03914 7.78929 2.53043 8 2 8V7ZM3 16C2.73478 16 2.48043 15.8946 2.29289 15.7071C2.10536 15.5196 2 15.2652 2 15V14C2.53043 14 3.03914 14.2107 3.41421 14.5858C3.78929 14.9609 4 15.4696 4 16H3ZM18 15C18 15.2652 17.8946 15.5196 17.7071 15.7071C17.5196 15.8946 17.2652 16 17 16H16C16 15.4696 16.2107 14.9609 16.5858 14.5858C16.9609 14.2107 17.4696 14 18 14V15ZM18 12C16.9391 12 15.9217 12.4214 15.1716 13.1716C14.4214 13.9217 14 14.9391 14 16H6C6 14.9391 5.57857 13.9217 4.82843 13.1716C4.07828 12.4214 3.06087 12 2 12V10C3.06087 10 4.07828 9.57857 4.82843 8.82843C5.57857 8.07828 6 7.06087 6 6H14C14 7.06087 14.4214 8.07828 15.1716 8.82843C15.9217 9.57857 16.9391 10 18 10V12ZM18 8C17.4696 8 16.9609 7.78929 16.5858 7.41421C16.2107 7.03914 16 6.53043 16 6H17C17.2652 6 17.5196 6.10536 17.7071 6.29289C17.8946 6.48043 18 6.73478 18 7V8ZM10 8C9.40666 8 8.82664 8.17595 8.33329 8.50559C7.83994 8.83524 7.45542 9.30377 7.22836 9.85195C7.0013 10.4001 6.94189 11.0033 7.05764 11.5853C7.1734 12.1672 7.45912 12.7018 7.87868 13.1213C8.29824 13.5409 8.83279 13.8266 9.41473 13.9424C9.99667 14.0581 10.5999 13.9987 11.1481 13.7716C11.6962 13.5446 12.1648 13.1601 12.4944 12.6667C12.8241 12.1734 13 11.5933 13 11C13 10.2044 12.6839 9.44129 12.1213 8.87868C11.5587 8.31607 10.7956 8 10 8ZM10 12C9.80222 12 9.60888 11.9414 9.44443 11.8315C9.27998 11.7216 9.15181 11.5654 9.07612 11.3827C9.00043 11.2 8.98063 10.9989 9.01921 10.8049C9.0578 10.6109 9.15304 10.4327 9.29289 10.2929C9.43275 10.153 9.61093 10.0578 9.80491 10.0192C9.99889 9.98063 10.2 10.0004 10.3827 10.0761C10.5654 10.1518 10.7216 10.28 10.8315 10.4444C10.9414 10.6089 11 10.8022 11 11C11 11.2652 10.8946 11.5196 10.7071 11.7071C10.5196 11.8946 10.2652 12 10 12Z" fill="#FF7A00"/>
</svg>
