<svg width="24" height="24" viewBox="0 0 24 24" fill="none" xmlns="http://www.w3.org/2000/svg">
<path d="M14.5019 10.33H21.1719C21.392 10.33 21.6031 10.2426 21.7588 10.0869C21.9144 9.93124 22.0019 9.72013 22.0019 9.5C22.0019 7.51088 21.2117 5.60322 19.8052 4.1967C18.3987 2.79018 16.491 2 14.5019 2C14.2817 2 14.0706 2.08745 13.915 2.2431C13.7593 2.39876 13.6719 2.60987 13.6719 2.83V9.5C13.6719 9.72013 13.7593 9.93124 13.915 10.0869C14.0706 10.2426 14.2817 10.33 14.5019 10.33ZM15.3319 3.73C16.5784 3.90941 17.7333 4.48761 18.6238 5.37811C19.5143 6.2686 20.0925 7.4235 20.2719 8.67H15.3319V3.73Z" fill="#FF7A00"/>
<path d="M21.0788 12.0001H12.9288C12.8093 12.0001 12.691 11.9765 12.5805 11.9308C12.4701 11.8851 12.3698 11.8181 12.2853 11.7335C12.2008 11.649 12.1338 11.5487 12.0881 11.4383C12.0423 11.3279 12.0188 11.2096 12.0188 11.0901V2.92008C12.0196 2.79037 11.9929 2.66196 11.9405 2.54329C11.8882 2.42461 11.8113 2.31834 11.715 2.23146C11.6187 2.14459 11.5051 2.07906 11.3816 2.03918C11.2582 1.99931 11.1277 1.98598 10.9988 2.00008C9.12154 2.19942 7.33905 2.92605 5.85746 4.09597C4.37587 5.26588 3.25571 6.83128 2.62649 8.61114C1.99728 10.391 1.88473 12.3126 2.30186 14.1538C2.71898 15.9949 3.64874 17.6804 4.98362 19.0152C6.3185 20.3501 8.00397 21.2799 9.84511 21.697C11.6863 22.1141 13.6079 22.0016 15.3877 21.3724C17.1676 20.7432 18.733 19.623 19.9029 18.1414C21.0728 16.6598 21.7995 14.8773 21.9988 13.0001C22.0099 12.8727 21.9944 12.7444 21.9531 12.6234C21.9119 12.5024 21.8459 12.3913 21.7593 12.2972C21.6728 12.2031 21.5675 12.1281 21.4504 12.0769C21.3332 12.0258 21.2066 11.9996 21.0788 12.0001Z" fill="#FF7A00"/>
</svg>
