<svg width="25" height="30" viewBox="0 0 25 30" fill="none" xmlns="http://www.w3.org/2000/svg">
<path d="M21.8016 16.473V11.8507C21.7995 9.79114 21.04 7.79881 19.6578 6.2265C18.2756 4.65419 16.3598 3.60336 14.2497 3.26011V1.67573C14.2497 1.29022 14.0906 0.920502 13.8073 0.647906C13.5241 0.375311 13.1399 0.222168 12.7393 0.222168C12.3387 0.222168 11.9546 0.375311 11.6713 0.647906C11.3881 0.920502 11.2289 1.29022 11.2289 1.67573V3.26011C9.11884 3.60336 7.20304 4.65419 5.82083 6.2265C4.43862 7.79881 3.67919 9.79114 3.67702 11.8507V16.473C2.79563 16.7729 2.03221 17.3278 1.4914 18.0616C0.950591 18.7955 0.658877 19.6724 0.65625 20.572V23.4791C0.65625 23.8647 0.81538 24.2344 1.09863 24.507C1.38188 24.7796 1.76605 24.9327 2.16663 24.9327H6.90924C7.25705 26.1644 8.01635 27.2517 9.06999 28.027C10.1236 28.8022 11.413 29.2222 12.7393 29.2222C14.0656 29.2222 15.355 28.8022 16.4086 28.027C17.4623 27.2517 18.2216 26.1644 18.5694 24.9327H23.312C23.7126 24.9327 24.0968 24.7796 24.38 24.507C24.6633 24.2344 24.8224 23.8647 24.8224 23.4791V20.572C24.8198 19.6724 24.528 18.7955 23.9872 18.0616C23.4464 17.3278 22.683 16.7729 21.8016 16.473ZM6.69778 11.8507C6.69778 10.3086 7.3343 8.82975 8.46731 7.73937C9.60032 6.64898 11.137 6.03641 12.7393 6.03641C14.3416 6.03641 15.8783 6.64898 17.0113 7.73937C18.1443 8.82975 18.7809 10.3086 18.7809 11.8507V16.2113H6.69778V11.8507ZM12.7393 26.3863C12.2122 26.3832 11.695 26.2474 11.2393 25.9924C10.7835 25.7374 10.405 25.3721 10.1415 24.9327H15.3372C15.0736 25.3721 14.6951 25.7374 14.2394 25.9924C13.7836 26.2474 13.2665 26.3832 12.7393 26.3863ZM21.8016 22.0256H3.67702V20.572C3.67702 20.1865 3.83615 19.8168 4.1194 19.5442C4.40265 19.2716 4.78682 19.1185 5.1874 19.1185H20.2912C20.6918 19.1185 21.076 19.2716 21.3592 19.5442C21.6425 19.8168 21.8016 20.1865 21.8016 20.572V22.0256Z" fill="#585858"/>
</svg>
