<svg width="270" height="308" viewBox="0 0 270 308" fill="none" xmlns="http://www.w3.org/2000/svg">
<rect x="0.5" y="0.5" width="269" height="307" rx="9.5" fill="white"/>
<rect x="0.5" y="0.5" width="269" height="307" rx="9.5" stroke="#EEEEEE"/>
<path d="M55.494 229V216.31H60.876C62.232 216.31 63.27 216.64 63.99 217.3C64.722 217.948 65.088 218.848 65.088 220C65.088 221.152 64.722 222.058 63.99 222.718C63.27 223.378 62.232 223.708 60.876 223.708H57.366V229H55.494ZM57.366 222.214H60.678C61.53 222.214 62.172 222.022 62.604 221.638C63.036 221.254 63.252 220.708 63.252 220C63.252 219.304 63.036 218.764 62.604 218.38C62.172 217.996 61.53 217.804 60.678 217.804H57.366V222.214ZM70.6458 229.162C69.7458 229.162 68.9658 228.976 68.3058 228.604C67.6458 228.22 67.1358 227.68 66.7758 226.984C66.4158 226.276 66.2358 225.436 66.2358 224.464C66.2358 223.492 66.4158 222.658 66.7758 221.962C67.1358 221.254 67.6458 220.714 68.3058 220.342C68.9658 219.958 69.7458 219.766 70.6458 219.766C71.5458 219.766 72.3258 219.958 72.9858 220.342C73.6578 220.714 74.1738 221.254 74.5338 221.962C74.9058 222.658 75.0918 223.492 75.0918 224.464C75.0918 225.436 74.9058 226.276 74.5338 226.984C74.1738 227.68 73.6578 228.22 72.9858 228.604C72.3258 228.976 71.5458 229.162 70.6458 229.162ZM70.6458 227.74C71.4378 227.74 72.0678 227.464 72.5358 226.912C73.0038 226.36 73.2378 225.544 73.2378 224.464C73.2378 223.384 73.0038 222.574 72.5358 222.034C72.0678 221.482 71.4378 221.206 70.6458 221.206C69.8658 221.206 69.2418 221.482 68.7738 222.034C68.3058 222.574 68.0718 223.384 68.0718 224.464C68.0718 225.544 68.2998 226.36 68.7558 226.912C69.2238 227.464 69.8538 227.74 70.6458 227.74ZM80.3308 229.162C79.5748 229.162 78.8788 229.066 78.2428 228.874C77.6068 228.682 77.0788 228.412 76.6588 228.064L77.2168 226.822C77.6608 227.158 78.1528 227.41 78.6928 227.578C79.2328 227.746 79.7848 227.83 80.3488 227.83C81.0088 227.83 81.5068 227.716 81.8428 227.488C82.1788 227.248 82.3468 226.924 82.3468 226.516C82.3468 226.204 82.2388 225.952 82.0228 225.76C81.8188 225.568 81.4768 225.424 80.9968 225.328L79.2688 224.986C78.5008 224.818 77.9188 224.53 77.5228 224.122C77.1268 223.714 76.9288 223.192 76.9288 222.556C76.9288 222.016 77.0728 221.536 77.3608 221.116C77.6608 220.696 78.0808 220.366 78.6208 220.126C79.1728 219.886 79.8148 219.766 80.5468 219.766C81.2188 219.766 81.8428 219.862 82.4188 220.054C82.9948 220.246 83.4748 220.522 83.8588 220.882L83.2828 222.088C82.9108 221.776 82.4908 221.536 82.0228 221.368C81.5548 221.188 81.0808 221.098 80.6008 221.098C79.9288 221.098 79.4308 221.224 79.1068 221.476C78.7828 221.728 78.6208 222.058 78.6208 222.466C78.6208 222.778 78.7168 223.036 78.9088 223.24C79.1128 223.432 79.4308 223.582 79.8628 223.69L81.5908 224.032C82.4068 224.2 83.0188 224.476 83.4268 224.86C83.8348 225.244 84.0388 225.76 84.0388 226.408C84.0388 226.972 83.8828 227.464 83.5708 227.884C83.2588 228.304 82.8268 228.622 82.2748 228.838C81.7228 229.054 81.0748 229.162 80.3308 229.162ZM89.6217 229.162C88.6377 229.162 87.8937 228.898 87.3897 228.37C86.8857 227.83 86.6337 227.026 86.6337 225.958V221.332H84.8697V219.928H86.6337V217.534L88.4517 217.048V219.928H90.9717V221.332H88.4517V225.796C88.4517 226.468 88.5717 226.948 88.8117 227.236C89.0517 227.524 89.3997 227.668 89.8557 227.668C90.0837 227.668 90.2817 227.65 90.4497 227.614C90.6297 227.566 90.7917 227.512 90.9357 227.452V228.928C90.7557 229 90.5457 229.054 90.3057 229.09C90.0657 229.138 89.8377 229.162 89.6217 229.162ZM92.4202 224.788V223.33H97.6942V224.788H92.4202ZM100.279 229V215.752H102.097V229H100.279ZM108.65 229.162C107.75 229.162 106.97 228.976 106.31 228.604C105.65 228.22 105.14 227.68 104.78 226.984C104.42 226.276 104.24 225.436 104.24 224.464C104.24 223.492 104.42 222.658 104.78 221.962C105.14 221.254 105.65 220.714 106.31 220.342C106.97 219.958 107.75 219.766 108.65 219.766C109.55 219.766 110.33 219.958 110.99 220.342C111.662 220.714 112.178 221.254 112.538 221.962C112.91 222.658 113.096 223.492 113.096 224.464C113.096 225.436 112.91 226.276 112.538 226.984C112.178 227.68 111.662 228.22 110.99 228.604C110.33 228.976 109.55 229.162 108.65 229.162ZM108.65 227.74C109.442 227.74 110.072 227.464 110.54 226.912C111.008 226.36 111.242 225.544 111.242 224.464C111.242 223.384 111.008 222.574 110.54 222.034C110.072 221.482 109.442 221.206 108.65 221.206C107.87 221.206 107.246 221.482 106.778 222.034C106.31 222.574 106.076 223.384 106.076 224.464C106.076 225.544 106.304 226.36 106.76 226.912C107.228 227.464 107.858 227.74 108.65 227.74ZM118.335 229.162C117.579 229.162 116.883 229.066 116.247 228.874C115.611 228.682 115.083 228.412 114.663 228.064L115.221 226.822C115.665 227.158 116.157 227.41 116.697 227.578C117.237 227.746 117.789 227.83 118.353 227.83C119.013 227.83 119.511 227.716 119.847 227.488C120.183 227.248 120.351 226.924 120.351 226.516C120.351 226.204 120.243 225.952 120.027 225.76C119.823 225.568 119.481 225.424 119.001 225.328L117.273 224.986C116.505 224.818 115.923 224.53 115.527 224.122C115.131 223.714 114.933 223.192 114.933 222.556C114.933 222.016 115.077 221.536 115.365 221.116C115.665 220.696 116.085 220.366 116.625 220.126C117.177 219.886 117.819 219.766 118.551 219.766C119.223 219.766 119.847 219.862 120.423 220.054C120.999 220.246 121.479 220.522 121.863 220.882L121.287 222.088C120.915 221.776 120.495 221.536 120.027 221.368C119.559 221.188 119.085 221.098 118.605 221.098C117.933 221.098 117.435 221.224 117.111 221.476C116.787 221.728 116.625 222.058 116.625 222.466C116.625 222.778 116.721 223.036 116.913 223.24C117.117 223.432 117.435 223.582 117.867 223.69L119.595 224.032C120.411 224.2 121.023 224.476 121.431 224.86C121.839 225.244 122.043 225.76 122.043 226.408C122.043 226.972 121.887 227.464 121.575 227.884C121.263 228.304 120.831 228.622 120.279 228.838C119.727 229.054 119.079 229.162 118.335 229.162ZM127.3 229.162C126.544 229.162 125.848 229.066 125.212 228.874C124.576 228.682 124.048 228.412 123.628 228.064L124.186 226.822C124.63 227.158 125.122 227.41 125.662 227.578C126.202 227.746 126.754 227.83 127.318 227.83C127.978 227.83 128.476 227.716 128.812 227.488C129.148 227.248 129.316 226.924 129.316 226.516C129.316 226.204 129.208 225.952 128.992 225.76C128.788 225.568 128.446 225.424 127.966 225.328L126.238 224.986C125.47 224.818 124.888 224.53 124.492 224.122C124.096 223.714 123.898 223.192 123.898 222.556C123.898 222.016 124.042 221.536 124.33 221.116C124.63 220.696 125.05 220.366 125.59 220.126C126.142 219.886 126.784 219.766 127.516 219.766C128.188 219.766 128.812 219.862 129.388 220.054C129.964 220.246 130.444 220.522 130.828 220.882L130.252 222.088C129.88 221.776 129.46 221.536 128.992 221.368C128.524 221.188 128.05 221.098 127.57 221.098C126.898 221.098 126.4 221.224 126.076 221.476C125.752 221.728 125.59 222.058 125.59 222.466C125.59 222.778 125.686 223.036 125.878 223.24C126.082 223.432 126.4 223.582 126.832 223.69L128.56 224.032C129.376 224.2 129.988 224.476 130.396 224.86C130.804 225.244 131.008 225.76 131.008 226.408C131.008 226.972 130.852 227.464 130.54 227.884C130.228 228.304 129.796 228.622 129.244 228.838C128.692 229.054 128.044 229.162 127.3 229.162ZM138.111 229V216.31H139.983V229H138.111ZM142.801 229V222.106C142.801 221.758 142.783 221.404 142.747 221.044C142.723 220.672 142.693 220.3 142.657 219.928H144.421L144.583 221.836H144.367C144.643 221.164 145.069 220.654 145.645 220.306C146.221 219.946 146.887 219.766 147.643 219.766C148.711 219.766 149.515 220.06 150.055 220.648C150.607 221.236 150.883 222.148 150.883 223.384V229H149.065V223.492C149.065 222.688 148.903 222.112 148.579 221.764C148.267 221.404 147.787 221.224 147.139 221.224C146.371 221.224 145.759 221.464 145.303 221.944C144.847 222.412 144.619 223.048 144.619 223.852V229H142.801ZM156.585 229.162C155.829 229.162 155.133 229.066 154.497 228.874C153.861 228.682 153.333 228.412 152.913 228.064L153.471 226.822C153.915 227.158 154.407 227.41 154.947 227.578C155.487 227.746 156.039 227.83 156.603 227.83C157.263 227.83 157.761 227.716 158.097 227.488C158.433 227.248 158.601 226.924 158.601 226.516C158.601 226.204 158.493 225.952 158.277 225.76C158.073 225.568 157.731 225.424 157.251 225.328L155.523 224.986C154.755 224.818 154.173 224.53 153.777 224.122C153.381 223.714 153.183 223.192 153.183 222.556C153.183 222.016 153.327 221.536 153.615 221.116C153.915 220.696 154.335 220.366 154.875 220.126C155.427 219.886 156.069 219.766 156.801 219.766C157.473 219.766 158.097 219.862 158.673 220.054C159.249 220.246 159.729 220.522 160.113 220.882L159.537 222.088C159.165 221.776 158.745 221.536 158.277 221.368C157.809 221.188 157.335 221.098 156.855 221.098C156.183 221.098 155.685 221.224 155.361 221.476C155.037 221.728 154.875 222.058 154.875 222.466C154.875 222.778 154.971 223.036 155.163 223.24C155.367 223.432 155.685 223.582 156.117 223.69L157.845 224.032C158.661 224.2 159.273 224.476 159.681 224.86C160.089 225.244 160.293 225.76 160.293 226.408C160.293 226.972 160.137 227.464 159.825 227.884C159.513 228.304 159.081 228.622 158.529 228.838C157.977 229.054 157.329 229.162 156.585 229.162ZM162.436 232.888V222.106C162.436 221.758 162.418 221.404 162.382 221.044C162.358 220.672 162.328 220.3 162.292 219.928H164.056L164.236 221.98H164.038C164.23 221.296 164.614 220.756 165.19 220.36C165.778 219.964 166.474 219.766 167.278 219.766C168.082 219.766 168.784 219.958 169.384 220.342C169.984 220.714 170.446 221.248 170.77 221.944C171.106 222.64 171.274 223.48 171.274 224.464C171.274 225.436 171.106 226.276 170.77 226.984C170.446 227.692 169.984 228.232 169.384 228.604C168.784 228.976 168.082 229.162 167.278 229.162C166.486 229.162 165.796 228.97 165.208 228.586C164.632 228.19 164.248 227.656 164.056 226.984H164.254V232.888H162.436ZM166.828 227.74C167.62 227.74 168.25 227.464 168.718 226.912C169.198 226.36 169.438 225.544 169.438 224.464C169.438 223.384 169.198 222.574 168.718 222.034C168.25 221.482 167.62 221.206 166.828 221.206C166.036 221.206 165.4 221.482 164.92 222.034C164.452 222.574 164.218 223.384 164.218 224.464C164.218 225.544 164.452 226.36 164.92 226.912C165.4 227.464 166.036 227.74 166.828 227.74ZM177.598 229.162C176.134 229.162 174.982 228.748 174.142 227.92C173.302 227.092 172.882 225.946 172.882 224.482C172.882 223.534 173.062 222.706 173.422 221.998C173.794 221.29 174.304 220.744 174.952 220.36C175.612 219.964 176.374 219.766 177.238 219.766C178.09 219.766 178.804 219.946 179.38 220.306C179.956 220.666 180.394 221.176 180.694 221.836C180.994 222.484 181.144 223.252 181.144 224.14V224.716H174.304V223.672H179.902L179.596 223.906C179.596 223.006 179.392 222.31 178.984 221.818C178.588 221.314 178.012 221.062 177.256 221.062C176.416 221.062 175.768 221.356 175.312 221.944C174.856 222.52 174.628 223.318 174.628 224.338V224.518C174.628 225.586 174.886 226.39 175.402 226.93C175.93 227.47 176.674 227.74 177.634 227.74C178.162 227.74 178.654 227.668 179.11 227.524C179.578 227.368 180.022 227.116 180.442 226.768L181.036 228.01C180.616 228.382 180.106 228.67 179.506 228.874C178.906 229.066 178.27 229.162 177.598 229.162ZM187.208 229.162C186.296 229.162 185.498 228.976 184.814 228.604C184.142 228.22 183.62 227.674 183.248 226.966C182.888 226.246 182.708 225.394 182.708 224.41C182.708 223.438 182.894 222.604 183.266 221.908C183.638 221.212 184.16 220.684 184.832 220.324C185.504 219.952 186.296 219.766 187.208 219.766C187.796 219.766 188.366 219.868 188.918 220.072C189.47 220.264 189.926 220.54 190.286 220.9L189.692 222.178C189.356 221.854 188.978 221.614 188.558 221.458C188.138 221.29 187.73 221.206 187.334 221.206C186.47 221.206 185.792 221.482 185.3 222.034C184.808 222.586 184.562 223.384 184.562 224.428C184.562 225.484 184.808 226.294 185.3 226.858C185.792 227.422 186.47 227.704 187.334 227.704C187.718 227.704 188.12 227.632 188.54 227.488C188.96 227.332 189.344 227.086 189.692 226.75L190.286 228.028C189.914 228.388 189.446 228.67 188.882 228.874C188.33 229.066 187.772 229.162 187.208 229.162ZM195.758 229.162C194.774 229.162 194.03 228.898 193.526 228.37C193.022 227.83 192.77 227.026 192.77 225.958V221.332H191.006V219.928H192.77V217.534L194.588 217.048V219.928H197.108V221.332H194.588V225.796C194.588 226.468 194.708 226.948 194.948 227.236C195.188 227.524 195.536 227.668 195.992 227.668C196.22 227.668 196.418 227.65 196.586 227.614C196.766 227.566 196.928 227.512 197.072 227.452V228.928C196.892 229 196.682 229.054 196.442 229.09C196.202 229.138 195.974 229.162 195.758 229.162ZM198.77 229V219.928H200.588V229H198.77ZM198.625 218.038V216.148H200.732V218.038H198.625ZM207.14 229.162C206.24 229.162 205.46 228.976 204.8 228.604C204.14 228.22 203.63 227.68 203.27 226.984C202.91 226.276 202.73 225.436 202.73 224.464C202.73 223.492 202.91 222.658 203.27 221.962C203.63 221.254 204.14 220.714 204.8 220.342C205.46 219.958 206.24 219.766 207.14 219.766C208.04 219.766 208.82 219.958 209.48 220.342C210.152 220.714 210.668 221.254 211.028 221.962C211.4 222.658 211.586 223.492 211.586 224.464C211.586 225.436 211.4 226.276 211.028 226.984C210.668 227.68 210.152 228.22 209.48 228.604C208.82 228.976 208.04 229.162 207.14 229.162ZM207.14 227.74C207.932 227.74 208.562 227.464 209.03 226.912C209.498 226.36 209.732 225.544 209.732 224.464C209.732 223.384 209.498 222.574 209.03 222.034C208.562 221.482 207.932 221.206 207.14 221.206C206.36 221.206 205.736 221.482 205.268 222.034C204.8 222.574 204.566 223.384 204.566 224.464C204.566 225.544 204.794 226.36 205.25 226.912C205.718 227.464 206.348 227.74 207.14 227.74ZM213.711 229V222.106C213.711 221.758 213.693 221.404 213.657 221.044C213.633 220.672 213.603 220.3 213.567 219.928H215.331L215.493 221.836H215.277C215.553 221.164 215.979 220.654 216.555 220.306C217.131 219.946 217.797 219.766 218.553 219.766C219.621 219.766 220.425 220.06 220.965 220.648C221.517 221.236 221.793 222.148 221.793 223.384V229H219.975V223.492C219.975 222.688 219.813 222.112 219.489 221.764C219.177 221.404 218.697 221.224 218.049 221.224C217.281 221.224 216.669 221.464 216.213 221.944C215.757 222.412 215.529 223.048 215.529 223.852V229H213.711Z" fill="#34475E"/>
<circle cx="135" cy="111" r="59.5" stroke="#7F8B94" stroke-width="3"/>
<path d="M170.625 108.312H133V84.125C132.999 82.6999 132.432 81.3336 131.424 80.3259C130.416 79.3182 129.05 78.7514 127.625 78.75H106.125C104.7 78.7514 103.334 79.3182 102.326 80.3259C101.318 81.3336 100.751 82.6999 100.75 84.125V108.312H95.375V113.688H133V137.875C133.001 139.3 133.568 140.666 134.576 141.674C135.584 142.682 136.95 143.249 138.375 143.25H159.875C161.3 143.249 162.666 142.682 163.674 141.674C164.682 140.666 165.249 139.3 165.25 137.875V113.688H170.625V108.312ZM106.125 84.125H127.625V108.312H106.125V84.125ZM159.875 137.875H138.375V113.688H159.875V137.875Z" fill="#7F8B94"/>
</svg>
