<svg width="270" height="308" viewBox="0 0 270 308" fill="none" xmlns="http://www.w3.org/2000/svg">
<rect x="0.5" y="0.5" width="269" height="307" rx="9.5" fill="white"/>
<rect x="0.5" y="0.5" width="269" height="307" rx="9.5" stroke="#EEEEEE"/>
<path d="M55.494 229V216.31H60.876C62.232 216.31 63.27 216.64 63.99 217.3C64.722 217.948 65.088 218.848 65.088 220C65.088 221.152 64.722 222.058 63.99 222.718C63.27 223.378 62.232 223.708 60.876 223.708H57.366V229H55.494ZM57.366 222.214H60.678C61.53 222.214 62.172 222.022 62.604 221.638C63.036 221.254 63.252 220.708 63.252 220C63.252 219.304 63.036 218.764 62.604 218.38C62.172 217.996 61.53 217.804 60.678 217.804H57.366V222.214ZM66.9679 229V222.178C66.9679 221.806 66.9559 221.434 66.9319 221.062C66.9199 220.678 66.8959 220.3 66.8599 219.928H68.6239L68.8219 222.268H68.5339C68.6539 221.704 68.8579 221.236 69.1459 220.864C69.4339 220.492 69.7819 220.216 70.1899 220.036C70.6099 219.856 71.0479 219.766 71.5039 219.766C71.6959 219.766 71.8579 219.778 71.9899 219.802C72.1219 219.814 72.2539 219.838 72.3859 219.874L72.3679 221.494C72.1639 221.41 71.9839 221.362 71.8279 221.35C71.6839 221.326 71.5039 221.314 71.2879 221.314C70.7599 221.314 70.3099 221.434 69.9379 221.674C69.5659 221.902 69.2839 222.214 69.0919 222.61C68.8999 223.006 68.8039 223.432 68.8039 223.888V229H66.9679ZM77.86 229.162C76.396 229.162 75.244 228.748 74.404 227.92C73.564 227.092 73.144 225.946 73.144 224.482C73.144 223.534 73.324 222.706 73.684 221.998C74.056 221.29 74.566 220.744 75.214 220.36C75.874 219.964 76.636 219.766 77.5 219.766C78.352 219.766 79.066 219.946 79.642 220.306C80.218 220.666 80.656 221.176 80.956 221.836C81.256 222.484 81.406 223.252 81.406 224.14V224.716H74.566V223.672H80.164L79.858 223.906C79.858 223.006 79.654 222.31 79.246 221.818C78.85 221.314 78.274 221.062 77.518 221.062C76.678 221.062 76.03 221.356 75.574 221.944C75.118 222.52 74.89 223.318 74.89 224.338V224.518C74.89 225.586 75.148 226.39 75.664 226.93C76.192 227.47 76.936 227.74 77.896 227.74C78.424 227.74 78.916 227.668 79.372 227.524C79.84 227.368 80.284 227.116 80.704 226.768L81.298 228.01C80.878 228.382 80.368 228.67 79.768 228.874C79.168 229.066 78.532 229.162 77.86 229.162ZM83.6311 224.788V223.33H88.9051V224.788H83.6311ZM91.4902 229V215.752H93.3082V229H91.4902ZM99.8606 229.162C98.9606 229.162 98.1806 228.976 97.5206 228.604C96.8606 228.22 96.3506 227.68 95.9906 226.984C95.6306 226.276 95.4506 225.436 95.4506 224.464C95.4506 223.492 95.6306 222.658 95.9906 221.962C96.3506 221.254 96.8606 220.714 97.5206 220.342C98.1806 219.958 98.9606 219.766 99.8606 219.766C100.761 219.766 101.541 219.958 102.201 220.342C102.873 220.714 103.389 221.254 103.749 221.962C104.121 222.658 104.307 223.492 104.307 224.464C104.307 225.436 104.121 226.276 103.749 226.984C103.389 227.68 102.873 228.22 102.201 228.604C101.541 228.976 100.761 229.162 99.8606 229.162ZM99.8606 227.74C100.653 227.74 101.283 227.464 101.751 226.912C102.219 226.36 102.453 225.544 102.453 224.464C102.453 223.384 102.219 222.574 101.751 222.034C101.283 221.482 100.653 221.206 99.8606 221.206C99.0806 221.206 98.4566 221.482 97.9886 222.034C97.5206 222.574 97.2866 223.384 97.2866 224.464C97.2866 225.544 97.5146 226.36 97.9706 226.912C98.4386 227.464 99.0686 227.74 99.8606 227.74ZM109.546 229.162C108.79 229.162 108.094 229.066 107.458 228.874C106.822 228.682 106.294 228.412 105.874 228.064L106.432 226.822C106.876 227.158 107.368 227.41 107.908 227.578C108.448 227.746 109 227.83 109.564 227.83C110.224 227.83 110.722 227.716 111.058 227.488C111.394 227.248 111.562 226.924 111.562 226.516C111.562 226.204 111.454 225.952 111.238 225.76C111.034 225.568 110.692 225.424 110.212 225.328L108.484 224.986C107.716 224.818 107.134 224.53 106.738 224.122C106.342 223.714 106.144 223.192 106.144 222.556C106.144 222.016 106.288 221.536 106.576 221.116C106.876 220.696 107.296 220.366 107.836 220.126C108.388 219.886 109.03 219.766 109.762 219.766C110.434 219.766 111.058 219.862 111.634 220.054C112.21 220.246 112.69 220.522 113.074 220.882L112.498 222.088C112.126 221.776 111.706 221.536 111.238 221.368C110.77 221.188 110.296 221.098 109.816 221.098C109.144 221.098 108.646 221.224 108.322 221.476C107.998 221.728 107.836 222.058 107.836 222.466C107.836 222.778 107.932 223.036 108.124 223.24C108.328 223.432 108.646 223.582 109.078 223.69L110.806 224.032C111.622 224.2 112.234 224.476 112.642 224.86C113.05 225.244 113.254 225.76 113.254 226.408C113.254 226.972 113.098 227.464 112.786 227.884C112.474 228.304 112.042 228.622 111.49 228.838C110.938 229.054 110.29 229.162 109.546 229.162ZM118.51 229.162C117.754 229.162 117.058 229.066 116.422 228.874C115.786 228.682 115.258 228.412 114.838 228.064L115.396 226.822C115.84 227.158 116.332 227.41 116.872 227.578C117.412 227.746 117.964 227.83 118.528 227.83C119.188 227.83 119.686 227.716 120.022 227.488C120.358 227.248 120.526 226.924 120.526 226.516C120.526 226.204 120.418 225.952 120.202 225.76C119.998 225.568 119.656 225.424 119.176 225.328L117.448 224.986C116.68 224.818 116.098 224.53 115.702 224.122C115.306 223.714 115.108 223.192 115.108 222.556C115.108 222.016 115.252 221.536 115.54 221.116C115.84 220.696 116.26 220.366 116.8 220.126C117.352 219.886 117.994 219.766 118.726 219.766C119.398 219.766 120.022 219.862 120.598 220.054C121.174 220.246 121.654 220.522 122.038 220.882L121.462 222.088C121.09 221.776 120.67 221.536 120.202 221.368C119.734 221.188 119.26 221.098 118.78 221.098C118.108 221.098 117.61 221.224 117.286 221.476C116.962 221.728 116.8 222.058 116.8 222.466C116.8 222.778 116.896 223.036 117.088 223.24C117.292 223.432 117.61 223.582 118.042 223.69L119.77 224.032C120.586 224.2 121.198 224.476 121.606 224.86C122.014 225.244 122.218 225.76 122.218 226.408C122.218 226.972 122.062 227.464 121.75 227.884C121.438 228.304 121.006 228.622 120.454 228.838C119.902 229.054 119.254 229.162 118.51 229.162ZM129.322 229V216.31H131.194V229H129.322ZM134.012 229V222.106C134.012 221.758 133.994 221.404 133.958 221.044C133.934 220.672 133.904 220.3 133.868 219.928H135.632L135.794 221.836H135.578C135.854 221.164 136.28 220.654 136.856 220.306C137.432 219.946 138.098 219.766 138.854 219.766C139.922 219.766 140.726 220.06 141.266 220.648C141.818 221.236 142.094 222.148 142.094 223.384V229H140.276V223.492C140.276 222.688 140.114 222.112 139.79 221.764C139.478 221.404 138.998 221.224 138.35 221.224C137.582 221.224 136.97 221.464 136.514 221.944C136.058 222.412 135.83 223.048 135.83 223.852V229H134.012ZM147.796 229.162C147.04 229.162 146.344 229.066 145.708 228.874C145.072 228.682 144.544 228.412 144.124 228.064L144.682 226.822C145.126 227.158 145.618 227.41 146.158 227.578C146.698 227.746 147.25 227.83 147.814 227.83C148.474 227.83 148.972 227.716 149.308 227.488C149.644 227.248 149.812 226.924 149.812 226.516C149.812 226.204 149.704 225.952 149.488 225.76C149.284 225.568 148.942 225.424 148.462 225.328L146.734 224.986C145.966 224.818 145.384 224.53 144.988 224.122C144.592 223.714 144.394 223.192 144.394 222.556C144.394 222.016 144.538 221.536 144.826 221.116C145.126 220.696 145.546 220.366 146.086 220.126C146.638 219.886 147.28 219.766 148.012 219.766C148.684 219.766 149.308 219.862 149.884 220.054C150.46 220.246 150.94 220.522 151.324 220.882L150.748 222.088C150.376 221.776 149.956 221.536 149.488 221.368C149.02 221.188 148.546 221.098 148.066 221.098C147.394 221.098 146.896 221.224 146.572 221.476C146.248 221.728 146.086 222.058 146.086 222.466C146.086 222.778 146.182 223.036 146.374 223.24C146.578 223.432 146.896 223.582 147.328 223.69L149.056 224.032C149.872 224.2 150.484 224.476 150.892 224.86C151.3 225.244 151.504 225.76 151.504 226.408C151.504 226.972 151.348 227.464 151.036 227.884C150.724 228.304 150.292 228.622 149.74 228.838C149.188 229.054 148.54 229.162 147.796 229.162ZM153.646 232.888V222.106C153.646 221.758 153.628 221.404 153.592 221.044C153.568 220.672 153.538 220.3 153.502 219.928H155.266L155.446 221.98H155.248C155.44 221.296 155.824 220.756 156.4 220.36C156.988 219.964 157.684 219.766 158.488 219.766C159.292 219.766 159.994 219.958 160.594 220.342C161.194 220.714 161.656 221.248 161.98 221.944C162.316 222.64 162.484 223.48 162.484 224.464C162.484 225.436 162.316 226.276 161.98 226.984C161.656 227.692 161.194 228.232 160.594 228.604C159.994 228.976 159.292 229.162 158.488 229.162C157.696 229.162 157.006 228.97 156.418 228.586C155.842 228.19 155.458 227.656 155.266 226.984H155.464V232.888H153.646ZM158.038 227.74C158.83 227.74 159.46 227.464 159.928 226.912C160.408 226.36 160.648 225.544 160.648 224.464C160.648 223.384 160.408 222.574 159.928 222.034C159.46 221.482 158.83 221.206 158.038 221.206C157.246 221.206 156.61 221.482 156.13 222.034C155.662 222.574 155.428 223.384 155.428 224.464C155.428 225.544 155.662 226.36 156.13 226.912C156.61 227.464 157.246 227.74 158.038 227.74ZM168.809 229.162C167.345 229.162 166.193 228.748 165.353 227.92C164.513 227.092 164.093 225.946 164.093 224.482C164.093 223.534 164.273 222.706 164.633 221.998C165.005 221.29 165.515 220.744 166.163 220.36C166.823 219.964 167.585 219.766 168.449 219.766C169.301 219.766 170.015 219.946 170.591 220.306C171.167 220.666 171.605 221.176 171.905 221.836C172.205 222.484 172.355 223.252 172.355 224.14V224.716H165.515V223.672H171.113L170.807 223.906C170.807 223.006 170.603 222.31 170.195 221.818C169.799 221.314 169.223 221.062 168.467 221.062C167.627 221.062 166.979 221.356 166.523 221.944C166.067 222.52 165.839 223.318 165.839 224.338V224.518C165.839 225.586 166.097 226.39 166.613 226.93C167.141 227.47 167.885 227.74 168.845 227.74C169.373 227.74 169.865 227.668 170.321 227.524C170.789 227.368 171.233 227.116 171.653 226.768L172.247 228.01C171.827 228.382 171.317 228.67 170.717 228.874C170.117 229.066 169.481 229.162 168.809 229.162ZM178.419 229.162C177.507 229.162 176.709 228.976 176.025 228.604C175.353 228.22 174.831 227.674 174.459 226.966C174.099 226.246 173.919 225.394 173.919 224.41C173.919 223.438 174.105 222.604 174.477 221.908C174.849 221.212 175.371 220.684 176.043 220.324C176.715 219.952 177.507 219.766 178.419 219.766C179.007 219.766 179.577 219.868 180.129 220.072C180.681 220.264 181.137 220.54 181.497 220.9L180.903 222.178C180.567 221.854 180.189 221.614 179.769 221.458C179.349 221.29 178.941 221.206 178.545 221.206C177.681 221.206 177.003 221.482 176.511 222.034C176.019 222.586 175.773 223.384 175.773 224.428C175.773 225.484 176.019 226.294 176.511 226.858C177.003 227.422 177.681 227.704 178.545 227.704C178.929 227.704 179.331 227.632 179.751 227.488C180.171 227.332 180.555 227.086 180.903 226.75L181.497 228.028C181.125 228.388 180.657 228.67 180.093 228.874C179.541 229.066 178.983 229.162 178.419 229.162ZM186.969 229.162C185.985 229.162 185.241 228.898 184.737 228.37C184.233 227.83 183.981 227.026 183.981 225.958V221.332H182.217V219.928H183.981V217.534L185.799 217.048V219.928H188.319V221.332H185.799V225.796C185.799 226.468 185.919 226.948 186.159 227.236C186.399 227.524 186.747 227.668 187.203 227.668C187.431 227.668 187.629 227.65 187.797 227.614C187.977 227.566 188.139 227.512 188.283 227.452V228.928C188.103 229 187.893 229.054 187.653 229.09C187.413 229.138 187.185 229.162 186.969 229.162ZM189.98 229V219.928H191.798V229H189.98ZM189.836 218.038V216.148H191.942V218.038H189.836ZM198.351 229.162C197.451 229.162 196.671 228.976 196.011 228.604C195.351 228.22 194.841 227.68 194.481 226.984C194.121 226.276 193.941 225.436 193.941 224.464C193.941 223.492 194.121 222.658 194.481 221.962C194.841 221.254 195.351 220.714 196.011 220.342C196.671 219.958 197.451 219.766 198.351 219.766C199.251 219.766 200.031 219.958 200.691 220.342C201.363 220.714 201.879 221.254 202.239 221.962C202.611 222.658 202.797 223.492 202.797 224.464C202.797 225.436 202.611 226.276 202.239 226.984C201.879 227.68 201.363 228.22 200.691 228.604C200.031 228.976 199.251 229.162 198.351 229.162ZM198.351 227.74C199.143 227.74 199.773 227.464 200.241 226.912C200.709 226.36 200.943 225.544 200.943 224.464C200.943 223.384 200.709 222.574 200.241 222.034C199.773 221.482 199.143 221.206 198.351 221.206C197.571 221.206 196.947 221.482 196.479 222.034C196.011 222.574 195.777 223.384 195.777 224.464C195.777 225.544 196.005 226.36 196.461 226.912C196.929 227.464 197.559 227.74 198.351 227.74ZM204.922 229V222.106C204.922 221.758 204.904 221.404 204.868 221.044C204.844 220.672 204.814 220.3 204.778 219.928H206.542L206.704 221.836H206.488C206.764 221.164 207.19 220.654 207.766 220.306C208.342 219.946 209.008 219.766 209.764 219.766C210.832 219.766 211.636 220.06 212.176 220.648C212.728 221.236 213.004 222.148 213.004 223.384V229H211.186V223.492C211.186 222.688 211.024 222.112 210.7 221.764C210.388 221.404 209.908 221.224 209.26 221.224C208.492 221.224 207.88 221.464 207.424 221.944C206.968 222.412 206.74 223.048 206.74 223.852V229H204.922Z" fill="#34475E"/>
<circle cx="135" cy="111" r="59.5" stroke="#7F8B94" stroke-width="3"/>
<path d="M170.625 108.312H133V84.125C132.999 82.6999 132.432 81.3336 131.424 80.3259C130.416 79.3182 129.05 78.7514 127.625 78.75H106.125C104.7 78.7514 103.334 79.3182 102.326 80.3259C101.318 81.3336 100.751 82.6999 100.75 84.125V108.312H95.375V113.688H133V137.875C133.001 139.3 133.568 140.666 134.576 141.674C135.584 142.682 136.95 143.249 138.375 143.25H159.875C161.3 143.249 162.666 142.682 163.674 141.674C164.682 140.666 165.249 139.3 165.25 137.875V113.688H170.625V108.312ZM106.125 84.125H127.625V108.312H106.125V84.125ZM159.875 137.875H138.375V113.688H159.875V137.875Z" fill="#7F8B94"/>
</svg>
