<svg width="11" height="11" viewBox="0 0 11 11" fill="none" xmlns="http://www.w3.org/2000/svg">
<path d="M8.0155 7.30874L10.157 9.44974L9.4495 10.1572L7.3085 8.01574C6.51187 8.65436 5.521 9.0017 4.5 9.00024C2.016 9.00024 0 6.98424 0 4.50024C0 2.01624 2.016 0.000244141 4.5 0.000244141C6.984 0.000244141 9 2.01624 9 4.50024C9.00145 5.52124 8.65411 6.51211 8.0155 7.30874ZM7.0125 6.93774C7.64706 6.28519 8.00143 5.41046 8 4.50024C8 2.56674 6.4335 1.00024 4.5 1.00024C2.5665 1.00024 1 2.56674 1 4.50024C1 6.43374 2.5665 8.00024 4.5 8.00024C5.41021 8.00168 6.28494 7.6473 6.9375 7.01274L7.0125 6.93774Z" fill="#585858"/>
</svg>
